<?xml version="1.0" encoding="UTF-8" standalone="no"?><!DOCTYPE svg PUBLIC "-//W3C//DTD SVG 1.1//EN" "http://www.w3.org/Graphics/SVG/1.1/DTD/svg11.dtd"><svg width="100%" height="100%" viewBox="0 0 64 64" version="1.1" xmlns="http://www.w3.org/2000/svg" xmlns:xlink="http://www.w3.org/1999/xlink" xml:space="preserve" xmlns:serif="http://www.serif.com/" style="fill-rule:evenodd;clip-rule:evenodd;stroke-linejoin:round;stroke-miterlimit:2;"><rect id="Artboard7" x="0" y="0" width="64" height="64" style="fill:none;"/><clipPath id="_clip1"><rect x="0" y="0" width="64" height="64"/></clipPath><g clip-path="url(#_clip1)"><rect id="Artboard6" x="0" y="0" width="63.989" height="64.567" style="fill:none;"/><circle cx="31.994" cy="32.284" r="30.709" style="fill:#fff;"/><g><clipPath id="_clip2"><circle cx="31.994" cy="32.284" r="30.709"/></clipPath><g clip-path="url(#_clip2)"><path d="M122.279,76.683c-0.858,-1.067 -1.726,1.559 -11.76,-10.754c-3.488,-4.281 -2.27,-7.096 -6.434,-8.967c-1.858,-0.836 -3.535,-9.542 -6.436,-8.196c-4.377,2.03 -4.758,4.605 -6.743,1.113c-2.689,-4.73 -1.919,-13.661 -9.2,-15.855c-1.373,-0.414 -4.078,-7.786 -4.877,-8.708c-3.52,-4.057 -3.569,-3.753 -6.698,-8.752c-4.42,-7.06 -5.653,7.291 -8.13,8.5c-6.831,3.336 -5.727,6.284 -11.488,13.33c-6.581,8.047 -6.504,12.329 -9.67,8.653c-4.601,-5.342 -4.756,0.049 -14.294,10.183c-8.468,8.996 -6.9,19.972 -20.85,26.803m116.58,-7.35c-0.858,-0.365 -1.726,1.767 -11.76,-2.442c-3.488,-1.463 -2.27,-2.425 -6.434,-3.065c-1.858,-0.286 -3.535,-3.262 -6.436,-2.802c-4.377,0.694 -4.758,1.574 -6.743,0.381c-2.688,-1.617 -1.919,-4.67 -9.2,-5.42c-1.373,-0.141 -4.078,-2.661 -4.877,-2.976c-3.52,-1.387 -3.569,-1.283 -6.698,-2.992c-4.42,-2.413 -5.653,2.492 -8.13,2.906c-6.831,1.14 -5.727,2.148 -11.488,4.556c-6.581,2.751 -6.504,4.214 -9.67,2.958c-4.601,-1.826 -4.756,0.016 -14.294,3.481c-8.468,3.075 -6.9,10.43 -20.85,12.765"/><path d="M5.433,83.491c8.21,-4.02 10.926,-9.515 13.591,-15.165c1.836,-3.894 3.651,-7.86 7.085,-11.51c4.768,-5.065 7.19,-8.946 8.996,-10.892c1.075,-1.158 2.005,-1.669 2.969,-1.565c0.912,0.099 1.932,0.792 3.226,2.294c0.355,0.413 0.661,0.717 0.943,0.913c0.187,0.131 0.348,0.211 0.509,0.208c0.149,-0.003 0.283,-0.082 0.429,-0.199c0.233,-0.186 0.469,-0.464 0.732,-0.818c1.202,-1.621 2.833,-4.711 6.132,-8.745c2.86,-3.497 4.013,-5.979 5.302,-7.999c1.35,-2.116 2.836,-3.755 6.389,-5.491c0.16,-0.078 0.298,-0.253 0.446,-0.474c0.308,-0.462 0.597,-1.117 0.886,-1.865c0.778,-2.016 1.539,-4.667 2.48,-6.323c0.645,-1.134 1.425,-1.811 2.255,-1.842c0.795,-0.029 1.781,0.537 2.839,2.226c3.102,4.956 3.153,4.654 6.642,8.677c0.186,0.214 0.476,0.737 0.814,1.444c0.71,1.481 1.711,3.829 2.627,5.477c0.314,0.565 0.615,1.044 0.89,1.359c0.103,0.119 0.179,0.22 0.265,0.245c3.853,1.162 5.604,4.081 6.719,7.36c1.041,3.061 1.503,6.439 2.832,8.775c0.271,0.477 0.506,0.831 0.728,1.08c0.151,0.168 0.28,0.281 0.421,0.322c0.141,0.041 0.279,-0.01 0.44,-0.085c0.183,-0.085 0.378,-0.209 0.597,-0.357c0.849,-0.576 1.988,-1.492 3.778,-2.323c0.806,-0.373 1.548,-0.213 2.234,0.331c0.544,0.431 1.056,1.141 1.529,1.985c0.776,1.384 1.467,3.142 2.137,4.437c0.205,0.397 0.407,0.747 0.61,1.021c0.146,0.196 0.279,0.353 0.427,0.419c2.262,1.017 3.066,2.286 3.775,3.886c0.635,1.435 1.181,3.166 2.88,5.251c7.836,9.616 9.902,9.945 10.861,10.207c0.379,0.103 0.635,0.22 0.899,0.548c0.001,0.001 0.001,0.001 0.002,0.002c0.139,0.173 0.172,0.409 0.085,0.614c-0.039,0.092 -0.1,0.172 -0.178,0.234c-0.173,0.139 -0.409,0.172 -0.614,0.085c0,-0 0,-0 0,-0c-0.047,-0.02 -0.091,0.015 -0.155,0.029c-0.141,0.03 -0.307,0.073 -0.512,0.115c-1.219,0.244 -3.843,0.455 -11.089,-2.585c-1.476,-0.619 -2.155,-1.154 -2.721,-1.615c-0.741,-0.605 -1.264,-1.055 -3.572,-1.41c-0.828,-0.127 -1.64,-0.706 -2.504,-1.356c-1.041,-0.783 -2.187,-1.693 -3.746,-1.446c-2.183,0.346 -3.369,0.739 -4.258,0.896c-1.039,0.184 -1.731,0.102 -2.89,-0.594c-0.878,-0.529 -1.425,-1.191 -1.964,-1.891c-1.088,-1.413 -2.184,-2.951 -6.987,-3.446c-0.619,-0.063 -1.492,-0.528 -2.358,-1.12c-1.107,-0.755 -2.218,-1.713 -2.679,-1.895c-3.555,-1.401 -3.605,-1.297 -6.766,-3.023c-0.917,-0.501 -1.671,-0.655 -2.324,-0.568c-1,0.133 -1.741,0.807 -2.438,1.481c-0.972,0.939 -1.881,1.874 -2.979,2.058c-6.755,1.127 -5.658,2.136 -11.355,4.517c-3.28,1.371 -4.9,2.422 -6.095,2.973c-1.36,0.627 -2.235,0.702 -4.029,-0.01c-2.564,-1.018 -3.641,-0.799 -6.006,0.225c-1.705,0.739 -4.029,1.87 -7.86,3.261c-3.274,1.189 -4.988,3.05 -6.738,4.987c-2.785,3.082 -5.639,6.371 -14.219,7.807c-0.263,0.044 -0.524,-0.09 -0.641,-0.33c-0.026,-0.052 -0.044,-0.108 -0.054,-0.165c-0.044,-0.263 0.091,-0.525 0.33,-0.642Zm114.531,-7.193c-1.566,-0.889 -4.398,-3.22 -9.912,-9.988c-1.79,-2.196 -2.379,-4.013 -3.048,-5.524c-0.596,-1.346 -1.264,-2.42 -3.166,-3.274c-0.416,-0.187 -0.854,-0.663 -1.265,-1.353c-0.775,-1.301 -1.563,-3.423 -2.467,-5.035c-0.385,-0.687 -0.784,-1.279 -1.227,-1.63c-0.302,-0.24 -0.622,-0.345 -0.976,-0.181c-2.178,1.01 -3.359,2.157 -4.245,2.616c-0.518,0.268 -0.972,0.342 -1.417,0.212c-0.548,-0.161 -1.146,-0.709 -1.859,-1.964c-1.361,-2.393 -1.858,-5.846 -2.925,-8.982c-0.992,-2.917 -2.497,-5.56 -5.925,-6.593c-0.197,-0.06 -0.421,-0.195 -0.649,-0.419c-0.363,-0.356 -0.782,-0.982 -1.212,-1.755c-0.927,-1.667 -1.942,-4.043 -2.66,-5.541c-0.274,-0.57 -0.488,-1.003 -0.638,-1.176c-3.549,-4.091 -3.598,-3.786 -6.754,-8.827c-0.397,-0.635 -0.76,-1.082 -1.105,-1.363c-0.242,-0.197 -0.456,-0.305 -0.666,-0.297c-0.198,0.007 -0.373,0.118 -0.546,0.278c-0.251,0.231 -0.482,0.561 -0.705,0.954c-1.075,1.893 -1.898,5.117 -2.804,7.127c-0.466,1.033 -0.997,1.764 -1.528,2.023c-3.948,1.929 -5.142,3.726 -6.667,6.319c-1.067,1.814 -2.288,4 -4.618,6.85c-3.976,4.862 -5.546,8.352 -6.848,9.572c-0.489,0.457 -0.966,0.654 -1.46,0.632c-0.631,-0.028 -1.369,-0.473 -2.286,-1.538c-1.007,-1.17 -1.731,-1.805 -2.441,-1.882c-0.657,-0.071 -1.223,0.397 -1.955,1.186c-1.807,1.947 -4.231,5.829 -9.002,10.898c-4.19,4.452 -5.885,9.401 -8.271,14.075c-2.006,3.93 -4.479,7.674 -9.179,10.813c5.205,-1.588 7.416,-4.119 9.584,-6.518c1.872,-2.072 3.72,-4.041 7.221,-5.312c4.768,-1.732 7.19,-3.058 8.996,-3.724c1.953,-0.719 3.239,-0.738 5.727,0.249c1.371,0.544 2.04,0.516 3.079,0.037c1.203,-0.555 2.834,-1.611 6.135,-2.991c5.826,-2.435 4.714,-3.441 11.621,-4.594c0.513,-0.086 0.949,-0.424 1.39,-0.821c0.538,-0.485 1.069,-1.067 1.66,-1.56c0.668,-0.557 1.41,-1.003 2.296,-1.147c0.882,-0.145 1.916,0.002 3.173,0.688c3.097,1.691 3.146,1.587 6.63,2.959c0.498,0.197 1.719,1.205 2.916,2.022c0.671,0.458 1.322,0.867 1.802,0.916c4.635,0.478 6.18,1.869 7.303,3.249c0.661,0.813 1.138,1.648 2.146,2.254c1.016,0.611 1.541,0.572 2.603,0.326c0.84,-0.195 1.964,-0.505 3.734,-0.785c1.626,-0.258 2.917,0.416 4.054,1.225c0.502,0.358 0.972,0.739 1.432,1.048c0.383,0.258 0.752,0.469 1.137,0.528c2.252,0.346 3.042,0.798 3.747,1.342c0.623,0.481 1.163,1.064 2.829,1.763c5.07,2.127 7.718,2.601 9.211,2.613Z" style="fill:#fff;"/><path d="M38.682,39.305c-0.16,0.763 -0.61,3.083 -0.588,4.611c0.008,0.564 0.038,1.688 1.51,5.357c-1.359,-0.537 -1.378,-0.568 -1.528,-0.549c-0.167,0.022 -0.305,0.162 -0.323,0.332c-0.122,1.185 0.221,2.516 -0.361,3.554c-1.37,2.444 -3.793,4.182 -5.284,6.545l-13.665,-15.642c0.653,-1.766 0.922,-2.446 2.66,-7.189c0.354,-0.967 1.528,-4.192 1.87,-5.134c0.373,0.36 0.6,0.566 0.6,0.566c0.512,0.401 1.027,0.798 1.539,1.198c-0.059,0.18 -0.151,0.461 -0.237,0.74c-0.966,3.107 -0.845,3.825 -0.833,3.941c0.066,0.644 0.513,0.584 0.57,0.575c0.355,-0.053 0.945,-0.202 4.342,-0.526c-0.539,0.724 -1.416,1.944 -1.597,2.483c-0.155,0.465 0.16,0.658 0.453,0.578c0.224,-0.062 1.13,-0.647 3.449,-1.061c2.368,-0.423 5.086,-0.467 7.423,-0.379Z" style="fill:#fff;"/><path d="M40.604,33.474c0.257,-1.085 0.796,-2.626 1.545,-3.002c0.234,-0.118 0.536,-0.082 0.577,-0.064c0.248,0.109 0.411,0.963 3.15,3.094c0.017,0.013 0.099,0.077 0.196,0.152c-0.449,0.195 -0.899,0.389 -1.348,0.585c-0.203,0.089 -0.241,0.359 -0.084,0.505c0.082,0.076 0.093,0.06 1.622,0.732c-0,0.026 -0.016,0.309 0.012,0.806c0.007,0.115 0.006,0.231 0.015,0.346c-1.757,1.387 -3.7,0.759 -4.375,-0.208c-0.228,-0.325 -0.215,-0.509 -0.32,-1.059c-0.218,-1.139 -0.386,-1.132 -0.99,-1.887Z" style="fill:#fff;"/><path d="M32.829,30.878c0.055,0.037 0.11,0.075 0.165,0.113c3.059,2.124 3.226,2.376 3.356,2.423c0.081,0.029 0.37,0.045 2.925,0.528c0.272,0.052 0.541,0.131 0.816,0.167c0.095,0.111 0.201,0.23 0.323,0.366c0.306,0.34 0.333,0.438 0.552,1.58c0.161,0.843 1.017,1.687 2.251,1.961c0.925,0.205 1.732,0.028 2.343,-0.232l-1.373,1.332c-2.211,-0.283 -6.214,-0.615 -9.905,-0.378c-3.654,0.234 -5.463,0.928 -6.221,1.269c0.477,-0.87 1.703,-2.469 1.717,-2.49c0.144,-0.204 -0.006,-0.432 -0.201,-0.447c-0.024,-0.002 -0.187,0.014 -0.204,0.015c-3.229,0.306 -4.345,0.497 -4.778,0.576c-0.125,-0.477 0.284,-2.252 0.935,-4.267c5.057,1.835 5.634,-1.986 7.299,-2.516Z" style="fill:#fff;"/><path d="M34.033,21.929c2.091,-2.271 10.662,-11.562 12.804,-13.251c0.06,0.155 0.159,0.54 0.216,1.487c0.175,2.87 -0.204,7.789 -0.595,9.406c-0.565,2.34 -3.061,5.861 -3.694,6.751c-0.818,-0.942 -1.485,-1.642 -2.02,-2.162c0.039,-0.051 0.05,-0.112 0.071,-0.24c0.005,-0.031 1.229,-7.662 4.457,-11.82c0.181,-0.234 0.189,-0.227 0.204,-0.243l-0.057,-0.086c-0.071,0.005 -0.084,-0.044 -0.133,0.009l-0.043,0.046c-3.163,3.413 -4.969,9.742 -5.421,11.5c-0.602,-0.497 -0.89,-0.626 -0.959,-0.66c-1.106,-0.562 -3.503,-0.702 -4.83,-0.737Z" style="fill:#fff;"/><path d="M27.198,29.656c-0,0 -12.446,-6.778 -9.698,-18.708c0.501,-2.175 12.059,10.576 13.675,13.694c0.982,1.894 -3.977,5.014 -3.977,5.014Z" style="fill:#fff;"/><path d="M27.198,29.656c-0,0 -12.446,-6.778 -9.698,-18.708c0.501,-2.175 12.059,10.576 13.675,13.694c0.982,1.894 -3.977,5.014 -3.977,5.014Z" style="fill:#fff;"/><path d="M33.219,22.546c0.029,0.011 0.049,0.018 0.049,0.018c0.029,-0.001 0.056,-0.007 0.082,-0.017c1.158,0.008 3.889,0.114 5.094,0.635c1.475,0.639 4.526,4.399 5.083,5.097c-0.105,0.835 -0.109,1.612 -0.022,2.189c-0.309,-0.412 -0.429,-0.606 -0.826,-0.635c-0.776,-0.056 -1.366,0.372 -1.913,1.471c-0.229,0.46 -0.424,1.02 -0.569,1.526c-0.414,-0.902 -0.484,-1.888 -1.222,-2.498c-1.367,-1.129 -5.391,-0.426 -5.464,-0.414c-0.936,0.151 -1.043,0.222 -1.072,0.233c-2.083,0.796 -2.078,4.214 -6.78,2.533c-0.02,-0.007 -0.038,-0.014 -0.053,-0.02c-0.082,-0.075 -0.357,-0.277 -1.666,-1.293c-0.003,-0.002 -0.71,-0.643 -1.646,-1.604c-4.003,-4.108 -4.978,-6.541 -5.1,-6.822c-1.088,-2.503 -1.341,-7.254 -1.384,-8.141c-0.172,-3.641 0.148,-5.807 0.498,-6.084c0.037,-0.011 0.2,-0.059 0.387,-0.063c3.571,-0.07 12.847,9.887 16.194,13.738c0.102,0.117 0.151,0.151 0.321,0.151l0.009,0Zm-6.021,7.11c-0,0 4.959,-3.12 3.977,-5.014c-1.616,-3.118 -13.174,-15.869 -13.675,-13.694c-2.748,11.93 9.698,18.708 9.698,18.708Z" style="fill:#fff;"/><path d="M46.855,36.53c0.035,-0.388 0.1,-1.141 0.091,-1.282c-0.004,-0.07 -0.023,-0.218 -0.208,-0.305c-0.097,-0.045 -0.113,-0.048 -1.127,-0.459c0.349,-0.165 0.701,-0.323 1.042,-0.501c0.066,-0.013 0.117,-0.072 0.175,-0.106l0.007,-0.024c0.383,0.268 1.051,0.75 1.258,1.059c0.04,0.059 -0.052,0.431 -0.684,1.079c-0.012,0.012 -0.232,0.226 -0.554,0.539Z" style="fill:#fff;"/><path d="M39.5,33.223c-0.332,-0.029 -0.57,-0.051 -1.197,-0.112c-0.565,-0.055 -1.76,-0.185 -1.775,-0.196c-1.022,-0.761 -1.797,-1.396 -2.76,-2.206c1.197,-0.174 3.17,-0.34 4.319,0.068c0.596,0.212 0.744,0.636 1.055,1.536c0.133,0.387 0.245,0.674 0.358,0.91Z" style="fill:#fff;"/><path d="M22.459,30.686c-0.733,-0.729 -1.735,-1.772 -2.717,-2.944c-2.888,-3.448 -3.341,-5.268 -3.587,-6.224c-1.033,-4.028 -1.31,-11.557 -0.392,-13.021c0.13,-0.208 0.276,-0.335 0.706,-0.39c0.944,-0.121 3.408,0.139 10.767,7.381c0.065,0.065 2.808,2.739 5.857,6.188c1.296,-1.36 10.372,-10.856 13.019,-13.119c0.586,-0.501 0.647,-0.483 0.73,-0.491c0.487,-0.045 0.638,0.677 0.717,1.633c0.219,2.628 -0.124,8.58 -0.653,10.477c-0.721,2.585 -3.258,6.548 -3.501,6.898c0.32,0.383 0.737,0.89 0.767,0.945c0.078,0.139 0.031,0.15 -0.018,0.732c-0.065,0.767 -0.062,1.843 0.25,2.303c0.486,0.713 2.519,1.984 2.552,2.036c0.029,0.02 0.341,0.239 0.472,0.334c1.186,0.866 1.382,1.191 1.351,1.588c-0.003,0.044 0.006,0.576 -0.974,1.532c-0.196,0.191 -3.018,2.894 -3.28,3.146c-0.111,0.106 -0.247,0.09 -0.27,0.087c-0.001,0 -2.102,-0.305 -4.902,-0.443c-0.278,1.334 -0.688,3.819 -0.537,5.08c0.018,0.147 0.115,1.221 1.308,4.214c0.412,1.032 0.5,1.161 0.508,1.273c0.015,0.213 -0.164,0.399 -0.378,0.391c-0.178,-0.006 -0.179,-0.057 -1.805,-0.678c-0.106,1.079 -0.206,2.159 -0.314,3.237c-0.002,0.01 -0.028,0.091 -0.071,0.147l-5.575,7.101c-0.157,0.199 -0.462,0.206 -0.628,0.018c-4.323,-4.899 -13.85,-15.721 -14.273,-16.214c-0.175,-0.204 -0.094,-0.421 -0.081,-0.455c0.846,-2.262 4.927,-12.736 4.942,-12.751c0.003,-0.004 0.007,-0.008 0.01,-0.011Zm10.76,-8.14l-0.009,0c-0.17,0 -0.219,-0.034 -0.321,-0.151c-3.347,-3.851 -12.623,-13.808 -16.194,-13.738c-0.187,0.004 -0.35,0.052 -0.387,0.063c-0.35,0.277 -0.67,2.443 -0.498,6.084c0.043,0.887 0.296,5.638 1.384,8.141c0.122,0.281 1.097,2.714 5.1,6.822c0.936,0.961 1.643,1.602 1.646,1.604c1.309,1.016 1.584,1.218 1.666,1.293c0.015,0.006 0.033,0.013 0.053,0.02c4.702,1.681 4.697,-1.737 6.78,-2.533c0.029,-0.011 0.136,-0.082 1.072,-0.233c0.073,-0.012 4.097,-0.715 5.464,0.414c0.738,0.61 0.808,1.596 1.222,2.498c0.145,-0.506 0.34,-1.066 0.569,-1.526c0.547,-1.099 1.137,-1.527 1.913,-1.471c0.397,0.029 0.517,0.223 0.826,0.635c-0.087,-0.577 -0.083,-1.354 0.022,-2.189c-0.557,-0.698 -3.608,-4.458 -5.083,-5.097c-1.205,-0.521 -3.936,-0.627 -5.094,-0.635c-0.026,0.01 -0.053,0.016 -0.082,0.017c-0,-0 -0.02,-0.007 -0.049,-0.018Zm-7.689,10.848c-0.651,2.015 -1.06,3.79 -0.935,4.267c0.433,-0.079 1.549,-0.27 4.778,-0.576c0.017,-0.001 0.18,-0.017 0.204,-0.015c0.195,0.015 0.345,0.243 0.201,0.447c-0.014,0.021 -1.24,1.62 -1.717,2.49c0.758,-0.341 2.567,-1.035 6.221,-1.269c3.691,-0.237 7.694,0.095 9.905,0.378c0.243,-0.236 0.794,-0.77 1.373,-1.332c-0.611,0.26 -1.418,0.437 -2.343,0.232c-1.234,-0.274 -2.09,-1.118 -2.251,-1.961c-0.219,-1.142 -0.246,-1.24 -0.552,-1.58c-0.122,-0.136 -0.228,-0.255 -0.323,-0.366c-0.275,-0.036 -0.544,-0.115 -0.816,-0.167c-2.555,-0.483 -2.844,-0.499 -2.925,-0.528c-0.13,-0.047 -0.297,-0.299 -3.356,-2.423c-0.055,-0.038 -0.11,-0.076 -0.165,-0.113c-0.02,0.005 0.012,-0.004 -0,-0c-1.665,0.53 -2.242,4.351 -7.299,2.516Zm21.325,3.136c0.322,-0.313 0.542,-0.527 0.554,-0.539c0.632,-0.648 0.724,-1.02 0.684,-1.079c-0.208,-0.309 -0.875,-0.791 -1.258,-1.059c-0.004,0.014 -0.007,0.023 -0.007,0.024c-0.059,0.034 -0.109,0.093 -0.175,0.106c-0.342,0.178 -0.693,0.336 -1.042,0.501c1.014,0.411 1.03,0.414 1.127,0.459c0.185,0.087 0.203,0.235 0.208,0.305c0.009,0.141 -0.056,0.894 -0.091,1.282Zm-12.822,-14.601c1.327,0.035 3.724,0.175 4.83,0.737c0.069,0.034 0.357,0.163 0.959,0.66c0.452,-1.758 2.258,-8.087 5.421,-11.5l0.043,-0.046c0.049,-0.053 0.062,-0.004 0.133,-0.009l0.057,0.086c-0.015,0.016 -0.023,0.009 -0.204,0.243c-3.228,4.158 -4.452,11.789 -4.457,11.82c-0.021,0.128 -0.032,0.189 -0.071,0.24c0.535,0.52 1.202,1.22 2.02,2.162c0.633,-0.89 3.129,-4.411 3.694,-6.751c0.391,-1.617 0.77,-6.536 0.595,-9.406c-0.057,-0.947 -0.156,-1.332 -0.216,-1.487c-2.142,1.689 -10.713,10.98 -12.804,13.251Zm4.649,17.376c-2.337,-0.088 -5.055,-0.044 -7.423,0.379c-2.319,0.413 -3.225,0.999 -3.449,1.061c-0.293,0.08 -0.608,-0.113 -0.453,-0.578c0.181,-0.539 1.058,-1.759 1.597,-2.483c-3.397,0.324 -3.987,0.473 -4.341,0.526c-0.058,0.009 -0.505,0.069 -0.571,-0.576c-0.012,-0.115 -0.133,-0.833 0.833,-3.94c0.086,-0.279 0.179,-0.561 0.238,-0.74c-0.513,-0.4 -1.027,-0.797 -1.54,-1.198c0,-0 -0.226,-0.206 -0.6,-0.566c-0.341,0.942 -1.516,4.167 -1.87,5.134c-1.738,4.743 -2.006,5.423 -2.66,7.189l13.665,15.642c1.491,-2.363 3.914,-4.101 5.284,-6.545c0.582,-1.039 0.239,-2.369 0.362,-3.554c0.017,-0.17 0.156,-0.31 0.322,-0.332c0.15,-0.019 0.169,0.012 1.528,0.549c-1.472,-3.669 -1.501,-4.794 -1.51,-5.357c-0.022,-1.528 0.428,-3.848 0.588,-4.611Zm0.818,-6.082c-0.113,-0.236 -0.225,-0.523 -0.358,-0.91c-0.311,-0.9 -0.459,-1.324 -1.055,-1.536c-1.149,-0.408 -3.122,-0.242 -4.319,-0.068c0.963,0.81 1.738,1.445 2.76,2.206c0.015,0.011 1.21,0.141 1.775,0.196c0.627,0.061 0.865,0.083 1.197,0.112Zm6.572,0.431c-0.097,-0.075 -0.179,-0.139 -0.196,-0.152c-2.739,-2.131 -2.902,-2.985 -3.15,-3.094c-0.041,-0.018 -0.343,-0.054 -0.577,0.064c-0.749,0.376 -1.288,1.917 -1.545,3.002c0.003,0.01 -0.005,-0.018 -0,-0c0.604,0.755 0.772,0.748 0.99,1.887c0.105,0.55 0.092,0.734 0.32,1.059c0.675,0.967 2.618,1.595 4.375,0.208c-0.009,-0.115 -0.008,-0.231 -0.015,-0.346c-0.028,-0.497 -0.012,-0.78 -0.012,-0.806c-1.529,-0.672 -1.54,-0.656 -1.622,-0.732c-0.157,-0.146 -0.119,-0.416 0.084,-0.505c0.449,-0.196 0.898,-0.39 1.348,-0.585Zm-18.874,-3.998c-0,0 -12.446,-6.778 -9.698,-18.708c0.501,-2.175 12.059,10.576 13.675,13.694c0.982,1.894 -3.977,5.014 -3.977,5.014Zm-0.018,-0.487c2.08,-1.412 4.081,-3.354 3.585,-4.316c-0.861,-1.674 -4.772,-6.461 -8.247,-10.017c-3.002,-3.073 -4.353,-3.874 -4.731,-3.849c-0.03,0.107 -0.295,1.183 -0.372,2.548c-0.477,8.409 6.806,13.91 9.765,15.634Z"/><path d="M57.08,74.584c-0.858,-1.067 -1.726,1.56 -11.76,-10.754c-3.488,-4.281 -2.27,-7.096 -6.434,-8.967c-1.858,-0.835 -3.535,-9.541 -6.436,-8.196c-4.378,2.03 -4.758,4.605 -6.743,1.114c-2.689,-4.73 -1.919,-13.661 -9.2,-15.856c-1.373,-0.414 -4.078,-7.786 -4.877,-8.708c-3.52,-4.057 -3.569,-3.753 -6.699,-8.751c-4.419,-7.061 -5.652,7.29 -8.129,8.5c-6.831,3.336 -5.727,6.284 -11.488,13.329c-6.581,8.048 -6.504,12.329 -9.67,8.654c-4.601,-5.343 -4.756,0.048 -14.294,10.182c-8.468,8.997 -6.9,19.972 -20.851,26.803m116.581,-7.35c-0.858,-0.364 -1.726,1.767 -11.76,-2.442c-3.488,-1.463 -2.27,-2.425 -6.434,-3.065c-1.858,-0.285 -3.535,-3.261 -6.436,-2.801c-4.378,0.694 -4.758,1.574 -6.743,0.38c-2.689,-1.616 -1.919,-4.669 -9.2,-5.419c-1.373,-0.142 -4.078,-2.662 -4.877,-2.977c-3.52,-1.387 -3.569,-1.283 -6.699,-2.991c-4.419,-2.414 -5.652,2.492 -8.129,2.905c-6.831,1.14 -5.727,2.148 -11.488,4.556c-6.581,2.751 -6.504,4.215 -9.67,2.958c-4.601,-1.826 -4.756,0.017 -14.294,3.481c-8.468,3.075 -6.9,10.43 -20.851,12.765"/><path d="M-59.766,81.393c8.21,-4.02 10.926,-9.516 13.591,-15.165c1.836,-3.895 3.65,-7.861 7.085,-11.51c4.768,-5.066 7.19,-8.946 8.996,-10.892c1.075,-1.159 2.005,-1.669 2.969,-1.565c0.912,0.098 1.932,0.792 3.226,2.294c0.355,0.412 0.661,0.716 0.943,0.912c0.187,0.131 0.348,0.212 0.509,0.209c0.149,-0.003 0.283,-0.082 0.429,-0.199c0.233,-0.187 0.469,-0.464 0.731,-0.818c1.203,-1.622 2.834,-4.711 6.133,-8.746c2.86,-3.497 4.013,-5.978 5.302,-7.998c1.35,-2.117 2.836,-3.756 6.389,-5.491c0.16,-0.079 0.298,-0.253 0.446,-0.474c0.308,-0.462 0.597,-1.118 0.886,-1.866c0.778,-2.016 1.539,-4.667 2.48,-6.323c0.644,-1.134 1.425,-1.811 2.255,-1.842c0.795,-0.029 1.781,0.537 2.839,2.227c3.102,4.956 3.153,4.653 6.642,8.676c0.186,0.214 0.475,0.738 0.814,1.445c0.71,1.48 1.711,3.829 2.627,5.476c0.314,0.565 0.614,1.044 0.889,1.36c0.103,0.118 0.18,0.219 0.266,0.245c3.853,1.161 5.604,4.08 6.719,7.36c1.041,3.061 1.503,6.438 2.831,8.774c0.272,0.477 0.507,0.832 0.729,1.08c0.151,0.168 0.28,0.281 0.421,0.323c0.141,0.041 0.279,-0.011 0.44,-0.085c0.183,-0.086 0.378,-0.209 0.597,-0.358c0.849,-0.576 1.987,-1.492 3.778,-2.322c0.806,-0.374 1.548,-0.214 2.233,0.33c0.545,0.432 1.057,1.141 1.53,1.985c0.776,1.384 1.467,3.143 2.136,4.437c0.206,0.397 0.408,0.748 0.611,1.021c0.146,0.197 0.279,0.353 0.427,0.42c2.262,1.016 3.066,2.285 3.775,3.886c0.635,1.434 1.181,3.165 2.88,5.25c7.836,9.617 9.902,9.945 10.861,10.207c0.379,0.103 0.635,0.22 0.899,0.549c0.001,0 0.001,0.001 0.001,0.001c0.14,0.174 0.172,0.409 0.085,0.614c-0.038,0.092 -0.099,0.172 -0.177,0.234c-0.173,0.14 -0.409,0.172 -0.614,0.085c0,0 0,0 0,0c-0.047,-0.02 -0.092,0.016 -0.155,0.029c-0.141,0.03 -0.307,0.074 -0.512,0.115c-1.219,0.244 -3.843,0.455 -11.089,-2.584c-1.476,-0.619 -2.155,-1.155 -2.721,-1.616c-0.741,-0.605 -1.264,-1.055 -3.572,-1.41c-0.828,-0.127 -1.64,-0.706 -2.504,-1.356c-1.041,-0.783 -2.187,-1.693 -3.746,-1.446c-2.183,0.347 -3.37,0.74 -4.258,0.897c-1.039,0.184 -1.731,0.102 -2.89,-0.595c-0.878,-0.528 -1.425,-1.191 -1.964,-1.89c-1.088,-1.414 -2.184,-2.951 -6.987,-3.446c-0.619,-0.064 -1.492,-0.529 -2.358,-1.12c-1.107,-0.756 -2.218,-1.714 -2.679,-1.896c-3.555,-1.401 -3.605,-1.297 -6.766,-3.023c-0.917,-0.501 -1.671,-0.655 -2.324,-0.568c-1,0.134 -1.742,0.808 -2.438,1.481c-0.972,0.939 -1.881,1.875 -2.979,2.058c-6.755,1.128 -5.658,2.137 -11.355,4.518c-3.28,1.371 -4.9,2.422 -6.096,2.973c-1.359,0.626 -2.234,0.701 -4.029,-0.011c-2.563,-1.018 -3.64,-0.799 -6.005,0.226c-1.705,0.739 -4.029,1.869 -7.86,3.261c-3.274,1.189 -4.988,3.049 -6.738,4.987c-2.785,3.082 -5.639,6.37 -14.219,7.806c-0.263,0.044 -0.524,-0.09 -0.641,-0.329c-0.026,-0.053 -0.044,-0.108 -0.054,-0.166c-0.044,-0.263 0.091,-0.524 0.33,-0.641Zm114.53,-7.194c-1.565,-0.889 -4.397,-3.22 -9.912,-9.988c-1.789,-2.196 -2.378,-4.013 -3.047,-5.524c-0.596,-1.345 -1.265,-2.419 -3.166,-3.274c-0.416,-0.187 -0.854,-0.663 -1.265,-1.353c-0.775,-1.301 -1.563,-3.422 -2.467,-5.035c-0.385,-0.687 -0.784,-1.278 -1.227,-1.63c-0.302,-0.239 -0.622,-0.345 -0.977,-0.181c-2.177,1.01 -3.359,2.157 -4.244,2.616c-0.519,0.268 -0.973,0.342 -1.417,0.212c-0.548,-0.16 -1.146,-0.708 -1.859,-1.963c-1.361,-2.394 -1.858,-5.847 -2.925,-8.983c-0.992,-2.917 -2.498,-5.56 -5.925,-6.593c-0.197,-0.06 -0.421,-0.195 -0.649,-0.418c-0.363,-0.356 -0.783,-0.983 -1.212,-1.756c-0.927,-1.667 -1.942,-4.043 -2.661,-5.541c-0.273,-0.57 -0.487,-1.003 -0.637,-1.175c-3.549,-4.092 -3.598,-3.786 -6.754,-8.827c-0.397,-0.635 -0.761,-1.082 -1.105,-1.363c-0.242,-0.198 -0.456,-0.306 -0.666,-0.298c-0.198,0.007 -0.373,0.119 -0.546,0.278c-0.251,0.231 -0.482,0.562 -0.705,0.954c-1.075,1.893 -1.898,5.117 -2.804,7.127c-0.466,1.034 -0.997,1.764 -1.528,2.024c-3.949,1.928 -5.143,3.725 -6.667,6.318c-1.067,1.814 -2.288,4.001 -4.619,6.851c-3.975,4.861 -5.545,8.351 -6.848,9.571c-0.488,0.458 -0.965,0.655 -1.459,0.632c-0.631,-0.028 -1.369,-0.473 -2.286,-1.538c-1.007,-1.17 -1.731,-1.805 -2.441,-1.882c-0.657,-0.071 -1.223,0.397 -1.956,1.186c-1.806,1.948 -4.23,5.83 -9.001,10.898c-4.19,4.452 -5.885,9.401 -8.271,14.075c-2.006,3.93 -4.479,7.674 -9.179,10.814c5.205,-1.589 7.416,-4.12 9.584,-6.519c1.872,-2.072 3.72,-4.041 7.221,-5.312c4.768,-1.732 7.19,-3.058 8.996,-3.723c1.953,-0.72 3.239,-0.739 5.727,0.249c1.371,0.544 2.04,0.515 3.079,0.036c1.202,-0.554 2.834,-1.61 6.135,-2.99c5.825,-2.435 4.714,-3.442 11.621,-4.595c0.513,-0.085 0.949,-0.423 1.39,-0.821c0.538,-0.485 1.068,-1.067 1.66,-1.56c0.667,-0.557 1.41,-1.002 2.296,-1.147c0.882,-0.144 1.916,0.002 3.173,0.688c3.097,1.691 3.146,1.587 6.63,2.96c0.498,0.196 1.719,1.204 2.916,2.021c0.671,0.458 1.322,0.867 1.802,0.917c4.635,0.477 6.18,1.869 7.303,3.248c0.661,0.813 1.138,1.648 2.146,2.254c1.016,0.611 1.54,0.573 2.603,0.327c0.84,-0.195 1.964,-0.505 3.734,-0.786c1.626,-0.258 2.917,0.416 4.054,1.226c0.502,0.357 0.972,0.739 1.432,1.048c0.383,0.258 0.752,0.468 1.136,0.527c2.253,0.346 3.043,0.798 3.748,1.342c0.623,0.481 1.163,1.064 2.828,1.763c5.071,2.127 7.719,2.601 9.211,2.613Z" style="fill:#fff;"/></g></g><path d="M31.994,1.575c16.949,-0 30.709,13.76 30.709,30.709c-0,16.948 -13.76,30.709 -30.709,30.709c-16.948,-0 -30.709,-13.761 -30.709,-30.709c0,-16.949 13.761,-30.709 30.709,-30.709Zm0,1.81c-15.95,-0 -28.899,12.949 -28.899,28.899c0,15.95 12.949,28.899 28.899,28.899c15.95,-0 28.899,-12.949 28.899,-28.899c0,-15.95 -12.949,-28.899 -28.899,-28.899Z"/></g></svg>